<?xml version="1.0" encoding="utf-8"?>
<!-- Generator: Adobe Illustrator 25.4.6, SVG Export Plug-In . SVG Version: 6.00 Build 0)  -->
<svg version="1.1" xmlns="http://www.w3.org/2000/svg" xmlns:xlink="http://www.w3.org/1999/xlink" x="0px" y="0px" width="512px"
	 height="512px" viewBox="0 0 512 512" style="enable-background:new 0 0 512 512;" xml:space="preserve">
<style type="text/css">
	.st0{fill:#256C8D;}
	.st1{fill:#66C7F2;}
	.st2{fill:#8EC046;}
	.st3{fill:#045D88;}
	.st4{fill:#6DC5D3;}
	.st5{fill:#FFFFFF;}
	.st6{fill:#CEE1A6;}
	.st7{fill:#5C6E3F;}
	.st8{fill:#D2EBF4;}
	.st9{fill:#317883;}
	.st10{fill:#B1DFF8;}
	.st11{fill:#183A4C;}
	.st12{fill:#E5CCB3;}
	.st13{fill:#A67D52;}
	.st14{fill:#413731;}
	.st15{fill:#E0DF9B;}
	.st16{fill:#DFDE29;}
	.st17{fill:#A9A719;}
	.st18{fill:#F4D2AF;}
	.st19{fill:#F3922B;}
	.st20{fill:#995C1B;}
	.st21{fill:#6EC6D4;}
</style>
<g id="Ebene_1">
</g>
<g id="Ebene_2">
	<g>
		<path class="st21" d="M425.5,88c-6.4,1.2-12.6,3.1-18.6,5.8c-6.7,3-13.1,6.9-18.9,11.6c-4.6,3.8-8.9,8.2-12.7,12.8
			c-0.4,0.5-0.9,1.1-1.4,1.6l-2.2,2.2c-0.5,0.5-1.1,1.1-1.8,1.7c-0.1,0.1-0.2,0.2-0.3,0.3c-0.2,0.1-0.3,0.3-0.5,0.4
			c-6.1,5-13.3,7.7-20.8,7.7c-7.4,0-14.6-2.7-20.7-7.7c-2.2-1.8-4.3-3.9-6.2-6.2c-4.1-4.9-8.4-9.2-12.8-12.8
			c-14.5-12-32.7-18.5-51.2-18.5c-4.8,0-9.6,0.4-14.3,1.3c-13.6,2.3-26.3,8.2-37.3,17.2c-4.6,3.8-8.9,8.1-12.7,12.8
			c-1.8,2.2-3.9,4.3-6.2,6.2c-2.8,2.3-6.1,4.2-9.7,5.5l-3.9,1.4l0.2,0.1c-2.4,0.6-4.9,0.9-7.4,0.9c-7.4,0-14.6-2.7-20.7-7.7
			c-2.3-1.9-4.3-4-6.2-6.2c-3.9-4.8-8.2-9.1-12.7-12.8c-11.8-9.8-25.4-15.9-39.6-18c-18.2,19.5-33,42.1-43.6,66.9
			c1.8-1.9,3.5-3.8,5.1-5.7c1-1.2,2-2.3,3-3.3c1-1,2.1-2,3.1-2.9c0.6-0.5,1.2-1,1.8-1.4c3.1-2.2,6.7-3.9,10.6-5l3-0.8
			c1.8-0.3,3.6-0.5,5.4-0.5c7.4,0,14.6,2.7,20.7,7.7c2.2,1.8,4.3,3.9,6.2,6.2c4.8,5.8,10.2,11,16.3,15.6c13.9,10.5,30.3,16,47.5,16
			c15,0,29.8-4.4,42.6-12.5c3.3-2,6.3-4.1,9.1-6.4c4.6-3.8,8.9-8.1,12.7-12.8c2-2.4,4.1-4.5,6.2-6.2c2.6-2.2,5.5-3.9,8.5-5.2
			c1.2-0.5,2.4-0.9,3.7-1.2l2.2-0.6c2.1-0.4,4.3-0.7,6.4-0.7c6,0,11.8,1.7,17,5c1.2,0.8,2.3,1.6,3.4,2.5c2.2,1.8,4.3,3.9,6.2,6.3
			c0.6,0.7,1.1,1.2,1.7,1.7c3.5,4,7.3,7.8,11.4,11.2c14.5,11.9,32.7,18.5,51.2,18.5c17.6,0,34.9-5.9,49-16.8
			c0.8-0.6,1.5-1.2,2.3-1.8c4.6-3.8,8.9-8.1,12.7-12.8c2-2.4,4.1-4.5,6.2-6.2c6.1-5.1,13.3-7.7,20.8-7.7c7.4,0,14.6,2.7,20.7,7.7
			c2.2,1.8,4.3,3.9,6.2,6.2c0,0,0,0,0,0C455.9,126.4,442.1,105.9,425.5,88z"/>
		<path class="st21" d="M486.3,224.5c-5.2-3.8-10.9-6.9-16.8-9.3c-9.6-4-19.8-6.1-30.3-6.1c-11.2,0-22.1,2.4-32.3,7.1
			c-6.7,3-13.1,6.9-18.9,11.6c-4.6,3.8-8.9,8.2-12.7,12.8c-0.4,0.5-0.9,1.1-1.4,1.6l-2.2,2.2c-0.5,0.5-1.1,1.1-1.8,1.7
			c-0.1,0.1-0.2,0.2-0.3,0.3c-0.2,0.1-0.3,0.3-0.5,0.4c-6.1,5-13.3,7.7-20.8,7.7c-7.4,0-14.6-2.7-20.7-7.7c-2.2-1.8-4.3-3.9-6.2-6.2
			c-4.1-4.9-8.4-9.2-12.8-12.8c-14.5-12-32.7-18.5-51.2-18.5c-4.8,0-9.6,0.4-14.3,1.3c-13.6,2.3-26.3,8.2-37.3,17.2
			c-4.6,3.8-8.9,8.1-12.7,12.8c-1.8,2.2-3.9,4.3-6.2,6.2c-2.8,2.3-6.1,4.2-9.7,5.5l-3.9,1.4l0.2,0.1c-2.4,0.6-4.9,0.9-7.4,0.9
			c-7.4,0-14.6-2.7-20.7-7.7c-2.3-1.9-4.3-4-6.2-6.2c-3.9-4.8-8.2-9.1-12.7-12.8c-15-12.4-32.7-18.9-51.2-18.9
			c-10.4,0-20.6,2.1-30.2,6.1c-6.9,2.8-13.5,6.7-19.6,11.4c-0.5,6.2-0.8,12.4-0.8,18.7c0,14.9,1.4,29.5,4.1,43.7
			c1.3-0.9,2.6-1.8,3.9-2.8c0.9-0.7,1.9-1.4,2.8-2.2c1.3-1.1,2.5-2.2,3.7-3.3c3.3-3,6.3-6.2,9-9.5c1-1.2,2-2.3,3-3.3
			c1-1,2.1-2,3.1-2.9c0.6-0.5,1.2-1,1.8-1.4c3.1-2.2,6.7-3.9,10.6-5l3-0.8c1.8-0.3,3.6-0.5,5.4-0.5c7.4,0,14.6,2.7,20.7,7.7
			c2.2,1.8,4.3,3.9,6.2,6.2c4.8,5.8,10.2,11,16.3,15.6c13.9,10.5,30.3,16,47.5,16c15,0,29.8-4.4,42.7-12.5c3.3-2,6.3-4.1,9.1-6.4
			c4.6-3.8,8.9-8.1,12.7-12.8c2-2.4,4.1-4.5,6.2-6.2c2.6-2.2,5.5-3.9,8.5-5.2c1.2-0.5,2.4-0.9,3.7-1.2l2.2-0.6
			c2.1-0.4,4.3-0.7,6.4-0.7c6,0,11.8,1.7,17,5c1.2,0.8,2.3,1.6,3.4,2.5c2.2,1.8,4.3,3.9,6.2,6.3c0.6,0.7,1.1,1.2,1.7,1.7
			c3.5,4,7.3,7.8,11.4,11.2c14.5,11.9,32.7,18.5,51.2,18.5c17.6,0,34.9-5.9,49-16.8c0.8-0.6,1.5-1.2,2.3-1.8
			c4.6-3.8,8.9-8.1,12.7-12.8c2-2.4,4.1-4.5,6.2-6.2c6.1-5.1,13.3-7.7,20.8-7.7c7.4,0,14.6,2.7,20.7,7.7c2.2,1.8,4.3,3.9,6.2,6.2
			c2.8,3.4,5.9,6.6,9.1,9.6c0.1,0.1,0.2,0.2,0.3,0.3c1,0.9,1.9,1.7,3,2.6c0.1,0.1,0.2,0.2,0.4,0.3c0.1,0.1,0.3,0.2,0.4,0.3
			c1,0.8,2,1.6,3,2.4c0.3,0.2,0.6,0.4,0.9,0.7c2.5-13.7,3.8-27.7,3.8-42.1C487.2,238.3,486.9,231.4,486.3,224.5z"/>
		<path class="st21" d="M439.2,331.4c-11.2,0-22.2,2.4-32.4,7.1c-6.7,3-13.1,6.9-18.8,11.6c-4.6,3.8-8.9,8.2-12.7,12.8
			c-0.5,0.5-0.9,1.1-1.4,1.6l-2.2,2.2c-0.5,0.5-1.1,1.1-1.8,1.7c-0.1,0.1-0.2,0.2-0.3,0.3c-0.2,0.1-0.3,0.3-0.5,0.4
			c-6.1,5-13.3,7.7-20.8,7.7c-7.4,0-14.6-2.7-20.7-7.7c-2.2-1.8-4.3-3.9-6.2-6.2c-4.1-4.9-8.4-9.2-12.8-12.8
			c-14.5-12-32.7-18.5-51.2-18.5c-4.8,0-9.6,0.4-14.2,1.3c-13.6,2.3-26.3,8.2-37.3,17.2c-4.6,3.8-8.9,8.1-12.7,12.8
			c-1.8,2.2-3.9,4.3-6.2,6.2c-2.8,2.3-6.1,4.2-9.7,5.5l-3.9,1.4l0.2,0.1c-2.4,0.6-4.9,0.9-7.4,0.9c-7.4,0-14.6-2.7-20.7-7.7
			c-2.3-1.9-4.3-4-6.2-6.2c-3.9-4.8-8.2-9.1-12.7-12.8c-15-12.4-32.7-18.9-51.2-18.9c-10.4,0-20.6,2.1-30.2,6.1
			c-0.3,0.1-0.7,0.3-1,0.4c6.6,15.1,14.8,29.3,24.3,42.5L70,380c1.8-0.3,3.6-0.5,5.4-0.5c7.4,0,14.6,2.7,20.7,7.7
			c2.2,1.8,4.3,3.9,6.2,6.2c4.8,5.8,10.2,11,16.3,15.6c13.9,10.5,30.3,16,47.5,16c15,0,29.8-4.4,42.7-12.5c3.3-2,6.3-4.1,9.1-6.3
			c4.6-3.8,8.9-8.1,12.7-12.8c2-2.4,4.1-4.5,6.2-6.2c2.6-2.2,5.5-3.9,8.5-5.2c1.2-0.5,2.4-0.9,3.7-1.2l2.2-0.6
			c2.1-0.4,4.3-0.7,6.4-0.7c6,0,11.8,1.7,17,5c1.2,0.7,2.3,1.6,3.4,2.5c2.2,1.8,4.3,3.9,6.2,6.3c0.6,0.7,1.1,1.2,1.7,1.7
			c3.5,4,7.3,7.8,11.4,11.2c14.5,11.9,32.7,18.5,51.2,18.5c17.6,0,34.9-5.9,49-16.8c0.8-0.6,1.5-1.2,2.3-1.8
			c4.6-3.8,8.9-8.1,12.7-12.8c2-2.4,4.1-4.5,6.2-6.2c6.1-5.1,13.3-7.7,20.8-7.7c1.6,0,3.1,0.1,4.7,0.4c9.6-13.3,17.7-27.7,24.3-42.9
			C459,333.3,449.2,331.4,439.2,331.4z"/>
	</g>
</g>
</svg>
