<?xml version="1.0" encoding="utf-8"?>
<!-- Generator: Adobe Illustrator 25.4.6, SVG Export Plug-In . SVG Version: 6.00 Build 0)  -->
<svg version="1.1" xmlns="http://www.w3.org/2000/svg" xmlns:xlink="http://www.w3.org/1999/xlink" x="0px" y="0px" width="1200px"
	 height="225px" viewBox="0 0 1200 225" style="enable-background:new 0 0 1200 225;" xml:space="preserve">
<style type="text/css">
	.st0{fill:#216B8C;}
	.st1{fill:#63C7F2;}
	.st2{fill:#8CC740;}
	.st3{fill:#005C87;}
	.st4{fill:#FFFFFF;}
	.st5{fill:#6BC7D4;}
</style>
<g id="Ebene_1">
</g>
<g id="Ebene_2">
	<g>
		<path class="st0" d="M1080.6,127.7l-4-2.3l-13.3,7.7v34c2.2,1.1,4.5,2.3,6.6,3.1c3.6,1,7.1,1.8,10.6,2.2V127.7z"/>
		<path class="st0" d="M1083.3,172.7c2.3,0.2,4.7,0.3,7,0.4V92l-7,4V172.7z"/>
		<path class="st0" d="M1134.8,114.5l-19.8-11.4v67.7c1.3-0.3,2.5-0.7,3.7-1.1c5.9-2.1,11.2-4.9,16.1-8V114.5z"/>
		<path class="st0" d="M1112.3,96l-14.5-8.4l-4.8,2.8v82.7c0.4,0,0.8,0,1.2,0c6.8,0,12.9-0.6,18.1-1.7V96z"/>
		<path class="st1" d="M1118.7,169.7c3.1-1.1,5.9-2.4,8.7-3.7C1124.6,167.3,1121.7,168.6,1118.7,169.7"/>
		<path class="st1" d="M1134.8,161.7c-2,1.3-4.1,2.5-6.3,3.6C1130.7,164.2,1132.7,163,1134.8,161.7L1134.8,161.7z"/>
		<g>
			<path class="st2" d="M1093.7,32.8c2.7,0,5.4,0.1,8.1,0.4c12.6,1.4,24.5,5.9,34.8,12.8c-2.1-5.2-5.2-11.3-9.5-16.6
				c-8.3-3.1-17.2-4.8-26.5-4.8c-28.8,0-54.2,16-67.3,39.9c3.8-5.6,8.4-10.7,13.6-15c7.6-6.2,16.7-11.1,26.4-13.9
				C1079.9,33.7,1086.7,32.8,1093.7,32.8"/>
			<path class="st2" d="M1187.7,68.1c10.6-11.8,1.4-32.2,1.4-32.2c-20.9-38.2-70.4-21.8-70.4-21.8c20.3,10,27.1,39.1,27.1,39.1
				c7,21.8,15.4,25.7,25,24.9c4.7,12.8,10.6,75.8-49.9,97.8c-11.9,4.3-27.6,4.6-40,3.2c-4.5-0.5-9-1.5-13.3-2.8c0,0,0.1,0,0.1,0
				c13.7,7.1,29.2,10.4,44.5,8.9c7.5-0.7,14.8-2.3,21.2-4.9c57.8-23.7,57.9-86.1,47.7-111.4c-13.7-33.7-40.9-48.1-40.9-48.1
				C1170.1,31.3,1185.2,55.6,1187.7,68.1"/>
		</g>
		<polygon class="st4" points="1115,100 1115,94.5 1097.8,84.5 1080.6,94.5 1080.6,124.6 1076.6,122.3 1060.6,131.5 1060.6,165.7 
			1063.3,167.1 1063.3,133.1 1076.6,125.4 1080.6,127.7 1080.6,172.4 1083.3,172.7 1083.3,96 1090.3,92 1090.3,173.1 1093,173.2 
			1093,90.4 1097.8,87.7 1112.3,96 1112.3,171.5 1115,170.8 1115,103.1 1134.8,114.5 1134.8,161.7 1137.5,160 1137.5,113 		"/>
		<g>
			<path class="st0" d="M95.7,134.1c0,33.5-15.5,51.3-44.3,51.3c-28.7,0-44.2-17.8-44.2-51.3s15.5-50.7,44.2-50.7
				C80.2,83.4,95.7,100.6,95.7,134.1 M20.3,134.1c0,26.4,10.9,40.4,31.1,40.4c20.2,0,31.2-14.1,31.2-40.4s-11-39.9-31.2-39.9
				C31.2,94.3,20.3,107.7,20.3,134.1"/>
			<path class="st0" d="M172.2,132v49.7c0,2-1.7,3.2-5.7,3.2h-0.6c-4,0-5.7-1.1-5.7-3.2v-48.6c0-8.7-5.3-13.9-14.6-13.9
				c-6.5,0-13.3,3.9-18.1,10v52.5c0,2-1.7,3.2-5.7,3.2h-0.6c-4,0-5.7-1.1-5.7-3.2v-50.3c0-11.8-1.7-17.3-1.7-18.1
				c0-2.7,5.9-3.3,7.7-3.3c3.4,0,4.2,5.7,5,9.5c6-6.7,14.3-10.8,22.4-10.8C163.4,108.7,172.2,117.5,172.2,132"/>
			<path class="st0" d="M253,146.1c0,1.7-3,5.9-4.7,5.9H203c1.1,15.9,7.9,23.1,22.1,23.1c12.5,0,19.5-6,20.9-6c2,0,5,5.6,5,7.2
				c0,3.4-11.3,9.2-25.8,9.2c-23.8,0-35.1-12.2-35.1-37.8c0-25.4,11.5-38.8,33.4-38.8C243.1,108.7,253,121.8,253,146.1 M203,141.7
				h37.3c0-15.1-5.7-22.6-17.2-22.6C210.6,119.1,204,126.6,203,141.7"/>
			<path class="st0" d="M673.8,87.1v94.6c0,2-1.7,3.2-5.7,3.2h-1.1c-4,0-5.7-1.1-5.7-3.2v-43.1h-51.9v43.1c0,2-1.7,3.2-5.7,3.2h-1.1
				c-4,0-5.7-1.1-5.7-3.2V87.1c0-2,1.7-3.2,5.7-3.2h1.1c4,0,5.7,1.1,5.7,3.2v40.6h51.9V87.1c0-2,1.7-3.2,5.7-3.2h1.1
				C672.1,83.9,673.8,85.1,673.8,87.1"/>
			<path class="st0" d="M757.9,146.1c0,1.7-3,5.9-4.7,5.9h-45.3c1.1,15.9,7.9,23.1,22.1,23.1c12.5,0,19.5-6,20.9-6c2,0,5,5.6,5,7.2
				c0,3.4-11.3,9.2-25.8,9.2c-23.8,0-35.1-12.2-35.1-37.8c0-25.4,11.5-38.8,33.4-38.8C748,108.7,757.9,121.8,757.9,146.1
				 M707.9,141.7h37.3c0-15.1-5.7-22.6-17.2-22.6C715.5,119.1,708.9,126.6,707.9,141.7"/>
			<path class="st0" d="M830.3,131.2v32.1c0,11.8,1.7,17.3,1.7,18.1c0,2.7-5.9,3.3-7.7,3.3c-3.4,0-4.2-6-5-10
				c-5.4,6-13.3,10.8-24.1,10.8c-13.9,0-24.5-6.7-24.5-21.5c0-24.2,25.7-25.8,47.6-26.1v-6.7c0-6.5-3.9-12-15.8-12
				c-13,0-20.9,6-22.4,6c-2,0-5-5.6-5-7.2c0-3.7,12.6-9.2,27-9.2C819.8,108.7,830.3,117,830.3,131.2 M783.6,163.2
				c0,7.6,4.2,11.8,12.2,11.8c10.5,0,16.8-4.7,22.5-9.9v-16.9C803.3,148.3,783.6,148.3,783.6,163.2"/>
			<path class="st0" d="M864.8,79.9v84.6c0,8.6,3.6,10.6,7.7,10.6c4.2,0,4.9-0.7,6.2-0.7c2,0,3,5.6,3,6.7c0,3.9-6.6,4.3-10.5,4.3
				c-7.2,0-18.5-3.2-18.5-19.8V79.9c0-2,1.7-3.2,5.7-3.2h0.6C863.1,76.8,864.8,77.9,864.8,79.9"/>
			<path class="st0" d="M910.2,94.5v15h12c2,0,2.9,1.3,2.9,4.3v1.7c0,3-0.9,4.3-2.9,4.3h-12v44.6c0,8.6,3.6,10.6,7.7,10.6
				c4.2,0,4.9-0.7,6.2-0.7c2,0,3,5.6,3,6.7c0,3.9-6.6,4.3-10.5,4.3c-7.2,0-18.5-3.2-18.5-19.8v-45.7H891c-2,0-2.9-1.3-2.9-4.3v-1.7
				c0-3,0.9-4.3,2.9-4.3h7.2l1.7-15c0.1-2,1.6-3.2,4.6-3.2h1.4C909,91.4,910.2,92.5,910.2,94.5"/>
			<path class="st0" d="M956.4,79.9v38.7c5-5,12.8-9.9,21.9-9.9c9.2,0,22.8,3.7,22.8,23.2v49.7c0,2-1.7,3.2-5.7,3.2h-0.6
				c-4,0-5.7-1.1-5.7-3.2v-48.6c0-8.5-4.9-13.9-14.6-13.9c-10.8,0-18.1,10-18.1,10v52.5c0,2-1.7,3.2-5.7,3.2h-0.6
				c-4,0-5.7-1.1-5.7-3.2V79.9c0-2,1.7-3.2,5.7-3.2h0.6C954.7,76.8,956.4,77.9,956.4,79.9"/>
			<path class="st5" d="M310.5,86.2l34,94.3c0.3,0.7,0.4,1.3,0.4,1.9c0,1.4-1.9,2.4-6.2,2.4h-1.1c-2.9,0-5.2-0.6-5.7-2.3l-8.5-23.5
				h-42.1l-8.2,23.5c-0.6,1.7-2.9,2.3-5.7,2.3h-0.7c-4.3,0-6.2-0.9-6.2-2.4c0-0.6,0.1-1.2,0.4-2l34-94.2c0.6-1.7,2.9-2.3,5.7-2.3
				h4.2C307.6,83.9,309.9,84.5,310.5,86.2 M302.5,97.1c-0.6,2.7-1.1,5.6-2.1,8.3l-15,42.7h34.3l-15-42.7c-0.9-2.6-1.3-5.6-1.7-8.3
				H302.5z"/>
			<path class="st5" d="M403.9,119.5c0.6-2.9,1.1-5.6,2.3-8.5c0.6-1.3,1.9-1.7,3.9-1.7h0.6c3,0,4.3,1.1,4.3,3.2v98.8
				c0,2-1.7,3.2-5.7,3.2h-0.6c-4,0-5.7-1.1-5.7-3.2v-33.1c-5.6,4.3-11.6,7.3-20.5,7.3c-17.1,0-29.1-13.5-29.1-38.1
				c0-22.5,10.6-38.6,27.8-38.6C389.3,108.7,396.9,112.2,403.9,119.5 M365.9,148.2c0,17.1,6.4,26.8,19.2,26.7
				c6.6-0.1,12.6-2.1,17.8-6.5v-39.3c-5.9-6.5-13-9.9-19.4-9.9C372.2,119.2,365.9,129.7,365.9,148.2"/>
			<path class="st5" d="M493.8,112.5v50.9c0,11.8,1.7,17.3,1.7,18.1c0,2.7-5.9,3.3-7.7,3.3c-3.4,0-4.2-6-5-10
				c-6,6.7-14.3,10.8-22.4,10.8c-14.6,0-23.4-8.7-23.4-23.2v-49.7c0-2,1.7-3.2,5.7-3.2h0.6c4,0,5.7,1.1,5.7,3.2v48.6
				c0,8.7,5.3,13.9,14.6,13.9c6.5,0,13.3-3.9,18.1-10v-52.5c0-2,1.7-3.2,5.7-3.2h0.6C492.1,109.3,493.8,110.5,493.8,112.5"/>
			<path class="st5" d="M572,131.2v32.1c0,11.8,1.7,17.3,1.7,18.1c0,2.7-5.9,3.3-7.7,3.3c-3.4,0-4.2-6-5-10
				c-5.4,6-13.3,10.8-24.1,10.8c-13.9,0-24.5-6.7-24.5-21.5c0-24.2,25.7-25.8,47.6-26.1v-6.7c0-6.5-3.9-12-15.8-12
				c-13,0-20.9,6-22.4,6c-2,0-5-5.6-5-7.2c0-3.7,12.6-9.2,27-9.2C561.6,108.7,572,117,572,131.2 M525.3,163.2
				c0,7.6,4.2,11.8,12.2,11.8c10.5,0,16.8-4.7,22.5-9.9v-16.9C545.1,148.3,525.3,148.3,525.3,163.2"/>
		</g>
		<g>
			<path class="st5" d="M1140.6,100.8c-1.4,1.2-2.7,2.5-3.8,3.9c-0.6,0.7-1.3,1.4-2,2c-1.4,1.1-2.9,1.8-4.5,2.2l7.2,4.1v7.6
				c2.1-0.9,4.1-1.9,5.9-3.5c1.4-1.2,2.7-2.4,3.9-3.9c0.6-0.7,1.3-1.4,2-2c4.1-3.4,9.5-3.4,13.5,0c0.7,0.6,1.4,1.3,2,2
				c0.3,0.3,0.6,0.6,0.9,0.9c1-5.8,1.4-11.3,1.3-16.2C1158.5,93.6,1148.2,94.5,1140.6,100.8"/>
			<path class="st5" d="M1140.6,130.8c-1.2,1-2.2,2.1-3.2,3.2V160c9.7-6.8,17.2-15.5,22.2-26.2c1.2-2.5,2.1-4.9,3-7.4
				C1155.2,124.1,1147,125.6,1140.6,130.8"/>
			<path class="st5" d="M1087.4,87.1c1.4-1.2,2.7-2.5,3.8-3.8c0.6-0.8,1.3-1.4,2-2c4.1-3.4,9.5-3.4,13.6,0c0.7,0.6,1.4,1.3,2,2
				c1.4,1.7,3.1,3.3,4.9,4.7c9,6.8,21.1,6.3,29.7-0.8c1.4-1.2,2.7-2.4,3.9-3.9c0.6-0.7,1.3-1.4,2-2c1.2-1,2.6-1.7,4.1-2.1
				c-3.2-2.7-6-6.4-8.5-11.1c-1.5,0.8-2.9,1.7-4.2,2.8c-1.4,1.2-2.7,2.5-3.8,3.9c-0.6,0.7-1.3,1.4-2,2c-4.1,3.4-9.5,3.4-13.6,0
				c-0.7-0.6-1.4-1.2-2-2c-1.2-1.4-2.5-2.7-3.8-3.9c-4.5-3.7-9.8-5.7-15.4-5.7c-5.6,0-10.9,2-15.4,5.7c-1.4,1.2-2.7,2.5-3.8,3.9
				c-0.6,0.7-1.3,1.4-2,2c-4.1,3.4-9.5,3.4-13.6,0c-0.7-0.6-1.4-1.2-2-2c-1.2-1.4-2.5-2.7-3.8-3.9c-0.2-0.1-0.4-0.3-0.5-0.4
				c-7.3-5.7-18-5.2-24.6,1.3l-0.1,0.1c-3.2,5.7-5.7,11.9-7.2,18.2c1.6-0.8,3.1-1.7,4.5-2.8c1.4-1.2,2.7-2.5,3.8-3.8
				c0.6-0.8,1.3-1.4,2-2c4.1-3.4,9.5-3.4,13.6,0c0.7,0.6,1.4,1.3,2,2c1.1,1.4,2.4,2.7,3.8,3.9C1065.6,94.6,1078.4,94.5,1087.4,87.1"
				/>
			<path class="st5" d="M1080.6,104.8c-0.6,0.7-1.2,1.3-1.8,1.8c-4.1,3.3-9.5,3.3-13.5,0c-0.7-0.6-1.4-1.2-2-2
				c-1.2-1.4-2.5-2.7-3.9-3.9c-9-7.4-21.8-7.4-30.8,0c-1.4,1.2-2.7,2.5-3.8,3.9c-0.6,0.7-1.3,1.4-2,2c0.4,4.9,1.2,9.6,2.4,14.2
				c2.2-0.9,4.3-2.1,6.2-3.7c1.4-1.2,2.7-2.5,3.8-3.9c0.6-0.7,1.3-1.4,2-2c4.1-3.3,9.5-3.3,13.5,0c0.7,0.6,1.4,1.3,2,2
				c1.2,1.4,2.5,2.7,3.8,3.8c6.9,5.7,16.1,7,24,3.9V104.8z"/>
			<path class="st5" d="M1060.6,132c-0.4-0.4-0.8-0.8-1.2-1.2c-9-7.4-21.7-7.4-30.8,0c0.8,1.8,1.6,3.5,2.5,5.2c0,0,0,0-0.1,0
				c0.2,0.3,0.3,0.6,0.5,0.9c0.2,0.3,0.3,0.6,0.5,0.9c0.9,1.6,1.9,3.2,2.9,4.7c0.1,0.2,0.3,0.5,0.4,0.7c0,0,0,0,0,0
				c2.6,3.8,5.6,7.5,9,10.8c4.8,4.7,10.3,8.6,16.2,11.8V132z"/>
		</g>
	</g>
</g>
</svg>
